<mxfile host="app.diagrams.net" modified="2023-09-16T10:24:55.388Z" agent="Mozilla/5.0 (Windows NT 10.0; Win64; x64) AppleWebKit/537.36 (KHTML, like Gecko) Chrome/116.0.0.0 Safari/537.36" etag="skv-9-cCgMLSuNRc38Jw" version="21.7.5" type="device">
  <diagram name="Page-1" id="hDhawDrMOq3fDyaG_z1i">
    <mxGraphModel dx="1050" dy="566" grid="1" gridSize="10" guides="1" tooltips="1" connect="1" arrows="1" fold="1" page="1" pageScale="1" pageWidth="850" pageHeight="1100" math="0" shadow="0">
      <root>
        <mxCell id="0" />
        <mxCell id="1" parent="0" />
        <mxCell id="T8nxM4cV_ng4f6DZZX6p-5" style="rounded=0;orthogonalLoop=1;jettySize=auto;html=1;entryX=0;entryY=0.5;entryDx=0;entryDy=0;" edge="1" parent="1" source="Y4_OtuAko8wCgOKkr69z-1" target="Y4_OtuAko8wCgOKkr69z-7">
          <mxGeometry relative="1" as="geometry" />
        </mxCell>
        <mxCell id="T8nxM4cV_ng4f6DZZX6p-6" style="rounded=0;orthogonalLoop=1;jettySize=auto;html=1;exitX=1;exitY=0.5;exitDx=0;exitDy=0;entryX=0;entryY=0.5;entryDx=0;entryDy=0;" edge="1" parent="1" source="Y4_OtuAko8wCgOKkr69z-1" target="T8nxM4cV_ng4f6DZZX6p-2">
          <mxGeometry relative="1" as="geometry" />
        </mxCell>
        <mxCell id="Y4_OtuAko8wCgOKkr69z-1" value="" style="rounded=1;whiteSpace=wrap;html=1;" parent="1" vertex="1">
          <mxGeometry x="230" y="50" width="260" height="490" as="geometry" />
        </mxCell>
        <mxCell id="Y4_OtuAko8wCgOKkr69z-2" value="&lt;b&gt;Summary Engine&lt;/b&gt;" style="text;html=1;strokeColor=none;fillColor=none;align=center;verticalAlign=middle;whiteSpace=wrap;rounded=0;fontSize=18;" parent="1" vertex="1">
          <mxGeometry x="285" y="60" width="170" height="30" as="geometry" />
        </mxCell>
        <mxCell id="Y4_OtuAko8wCgOKkr69z-4" style="rounded=0;orthogonalLoop=1;jettySize=auto;html=1;exitX=1;exitY=0.5;exitDx=0;exitDy=0;exitPerimeter=0;entryX=0;entryY=0.121;entryDx=0;entryDy=0;entryPerimeter=0;" parent="1" source="Y4_OtuAko8wCgOKkr69z-3" target="Y4_OtuAko8wCgOKkr69z-1" edge="1">
          <mxGeometry relative="1" as="geometry" />
        </mxCell>
        <mxCell id="Y4_OtuAko8wCgOKkr69z-3" value="Trip&lt;br&gt;&amp;nbsp;Database" style="shape=cylinder3;whiteSpace=wrap;html=1;boundedLbl=1;backgroundOutline=1;size=15;" parent="1" vertex="1">
          <mxGeometry x="70" y="110" width="80" height="80" as="geometry" />
        </mxCell>
        <mxCell id="Y4_OtuAko8wCgOKkr69z-5" value="Background jobs" style="shape=document;whiteSpace=wrap;html=1;boundedLbl=1;fontFamily=Helvetica;fontSize=11;fontColor=default;" parent="1" vertex="1">
          <mxGeometry x="300" y="150" width="120" height="80" as="geometry" />
        </mxCell>
        <mxCell id="Y4_OtuAko8wCgOKkr69z-7" value="Email API" style="rounded=0;whiteSpace=wrap;html=1;fontFamily=Helvetica;fontSize=11;fontColor=default;" parent="1" vertex="1">
          <mxGeometry x="530" y="320" width="120" height="60" as="geometry" />
        </mxCell>
        <mxCell id="Y4_OtuAko8wCgOKkr69z-20" value="Collect metrics" style="shape=document;whiteSpace=wrap;html=1;boundedLbl=1;fontFamily=Helvetica;fontSize=11;fontColor=default;" parent="1" vertex="1">
          <mxGeometry x="300" y="340" width="120" height="80" as="geometry" />
        </mxCell>
        <mxCell id="Y4_OtuAko8wCgOKkr69z-22" style="edgeStyle=none;shape=connector;rounded=0;orthogonalLoop=1;jettySize=auto;html=1;exitX=1;exitY=0.5;exitDx=0;exitDy=0;exitPerimeter=0;entryX=0;entryY=0.351;entryDx=0;entryDy=0;entryPerimeter=0;labelBackgroundColor=default;strokeColor=default;fontFamily=Helvetica;fontSize=11;fontColor=default;endArrow=classic;" parent="1" source="Y4_OtuAko8wCgOKkr69z-21" target="Y4_OtuAko8wCgOKkr69z-1" edge="1">
          <mxGeometry relative="1" as="geometry" />
        </mxCell>
        <mxCell id="Y4_OtuAko8wCgOKkr69z-21" value="User&lt;br&gt;&amp;nbsp;Database" style="shape=cylinder3;whiteSpace=wrap;html=1;boundedLbl=1;backgroundOutline=1;size=15;" parent="1" vertex="1">
          <mxGeometry x="70" y="320" width="80" height="80" as="geometry" />
        </mxCell>
        <mxCell id="T8nxM4cV_ng4f6DZZX6p-1" value="Metrics Type:&lt;br&gt;&lt;ul&gt;&lt;li style=&quot;text-align: left;&quot;&gt;Cost&lt;/li&gt;&lt;li style=&quot;text-align: left;&quot;&gt;Location&lt;/li&gt;&lt;li style=&quot;text-align: left;&quot;&gt;Date&amp;amp; Time&lt;/li&gt;&lt;li style=&quot;text-align: left;&quot;&gt;Trip Status&lt;/li&gt;&lt;li style=&quot;text-align: left;&quot;&gt;Transport Type&lt;/li&gt;&lt;li style=&quot;text-align: left;&quot;&gt;Accomodation Type&lt;/li&gt;&lt;/ul&gt;" style="shape=document;whiteSpace=wrap;html=1;boundedLbl=1;" vertex="1" parent="1">
          <mxGeometry x="670" y="170" width="170" height="180" as="geometry" />
        </mxCell>
        <mxCell id="T8nxM4cV_ng4f6DZZX6p-2" value="Dashboard API" style="rounded=0;whiteSpace=wrap;html=1;fontFamily=Helvetica;fontSize=11;fontColor=default;" vertex="1" parent="1">
          <mxGeometry x="530" y="140" width="120" height="60" as="geometry" />
        </mxCell>
      </root>
    </mxGraphModel>
  </diagram>
</mxfile>
